<svg version="1.1" xmlns="http://www.w3.org/2000/svg" viewBox="250.68 355.8 521.53 311.83">
<path d="M0 0 C6.65793231 6.0088886 12.47835222 12.36221926 18.10546875 19.33984375 C33.80860172 38.49818168 50.26767127 46.74127088 74.86572266 49.51025391 C81.66891905 50.15448199 88.47821178 50.4234511 95.3046875 50.671875 C96.29477814 50.70841187 97.28486877 50.74494873 98.30496216 50.78259277 C102.43814564 50.93367972 106.57124671 51.08394775 110.70507812 51.21630859 C136.34071775 52.05048417 162.77790984 54.05544412 182.421875 72.6171875 C196.27291094 87.43221495 198.10409286 104.08125619 197.62060547 123.42675781 C196.92562609 137.78966502 189.70746994 150.36833597 179.4609375 160.1796875 C165.15486857 172.09254787 147.00274121 176.10238014 129.28686523 180.13183594 C111.56891081 184.17076054 93.49277066 189.72538328 82.484375 205.2421875 C78.52553539 211.55701947 75.08505682 218.17308359 71.640625 224.77734375 C58.74075451 249.37505133 39.3365192 266.14030834 13.16796875 275.41796875 C-23.02005965 286.4837295 -66.12411993 288.48349109 -100.39526367 270.35253906 C-106.348602 266.99155522 -111.60937495 262.9542117 -116.80859375 258.5390625 C-143.18756079 236.15690864 -170.63497607 235.00946964 -203.765625 234.7421875 C-242.01194703 234.43194029 -279.25692574 233.54358103 -309.1953125 206.73828125 C-320.04635572 195.50598516 -323.91828806 179.84887633 -323.8125 164.76416016 C-323.35736192 147.51063418 -317.20145567 131.88516009 -305.05859375 119.55859375 C-301.10601914 115.95816864 -297.10721716 112.98233121 -292.515625 110.2421875 C-291.67644531 109.73655273 -291.67644531 109.73655273 -290.8203125 109.22070312 C-276.63373984 100.81440422 -261.13173814 95.6076275 -245.4765625 90.625 C-219.98399168 82.50845874 -202.41247889 70.1013672 -189.515625 46.2421875 C-188.14884294 43.57074984 -186.8293967 40.8775123 -185.515625 38.1796875 C-179.17752222 25.22913912 -171.57658234 14.55003949 -161.515625 4.2421875 C-160.92265625 3.58734375 -160.3296875 2.9325 -159.71875 2.2578125 C-120.55587757 -40.00706963 -41.18892608 -35.2177504 0 0 Z M-148.515625 11.2421875 C-149.546875 12.0259375 -150.578125 12.8096875 -151.640625 13.6171875 C-163.86248117 24.77627357 -171.73602114 39.38559926 -178.92333984 54.04614258 C-191.76841696 80.13441907 -210.82754925 92.70374467 -237.7890625 101.890625 C-242.4144828 103.46055184 -247.04678345 105.00901614 -251.68554688 106.5390625 C-272.16945477 113.32390778 -292.5484147 120.87181398 -304.08203125 140.37109375 C-310.36476332 152.95367704 -312.6143401 166.6527583 -308.515625 180.2421875 C-302.96134765 194.90470288 -292.38602411 203.73289966 -278.515625 210.2421875 C-251.60267401 221.92315581 -222.17832115 221.55870144 -193.390625 221.2421875 C-158.68353273 220.8660074 -136.71485387 225.20959201 -109.78808594 247.68408203 C-88.45646227 265.32788741 -63.30384728 272.24137911 -35.75488281 270.01953125 C-4.00436558 267.0027541 28.7324759 259.42859698 50.484375 234.2421875 C56.20204419 226.80264552 59.84878941 218.34820557 63.78149414 209.88989258 C67.83144663 201.28287254 72.34923089 193.6638172 79.484375 187.2421875 C80.4125 186.3140625 81.340625 185.3859375 82.296875 184.4296875 C93.83355592 174.78671662 107.93687045 171.41194788 122.31689453 168.70996094 C143.16217546 164.77383178 164.47077586 159.70650879 177.484375 141.2421875 C184.15941628 130.48187505 187.22450081 117.96800697 184.98046875 105.42578125 C181.82632174 92.46674298 174.89673732 82.97495213 163.46606445 75.96972656 C141.91818306 63.479051 117.81480983 63.81300579 93.60864258 63.73095703 C63.59358126 63.58448797 36.50818089 59.9202245 14.19140625 38.06640625 C10.78684281 34.51445911 7.67953007 30.79814212 4.6328125 26.9375 C1.11439717 22.52348804 -2.68106398 18.38129849 -6.515625 14.2421875 C-7.12664062 13.55382812 -7.73765625 12.86546875 -8.3671875 12.15625 C-23.56661579 -4.20738982 -48.10718598 -12.79804417 -70.02856445 -13.88208008 C-99.48020362 -14.74165173 -125.98378143 -8.59353803 -148.515625 11.2421875 Z " fill="#000000" transform="translate(574.515625,383.7578125)"/>
<path d="M0 0 C4.71720816 3.86306347 7.90606866 8.57151215 9.06640625 14.609375 C9.36639389 20.22204701 8.00457441 24.82170683 4.625 29.3125 C-5.30571624 39.60705714 -20.17541767 43.21622799 -34.03344727 43.59570312 C-42.79777861 43.70250923 -50.39803565 43.38147693 -57.75 38.125 C-61.44898672 34.16179995 -63.23964839 30.53837995 -63.46875 25.078125 C-62.8746203 16.4632444 -58.67729068 9.1048543 -52.375 3.3125 C-36.93751442 -8.5985312 -16.66849685 -11.14337126 0 0 Z " fill="#000000" transform="translate(499.375,426.6875)"/>
<path d="M0 0 C3.86495724 2.81819799 4.84660648 4.13541835 5.6875 8.875 C5.35075985 12.87098313 4.12307784 15.33434101 1.3515625 18.2109375 C-4.19070614 22.42748075 -10.67870224 25.15626007 -17 28 C-18.71509766 28.78310547 -18.71509766 28.78310547 -20.46484375 29.58203125 C-32.69878429 34.93534445 -32.69878429 34.93534445 -39.75 32.9375 C-43.6349541 30.62146967 -44.6979118 29.31316716 -46 25 C-46.11524585 17.97000291 -43.6159037 13.23763766 -39 8 C-28.65122656 -1.489489 -13.04523069 -6.89811772 0 0 Z " fill="#000000" transform="translate(353,429)"/>
<path d="M0 0 C3.28157852 2.51455896 5.29462153 4.81742514 6.18359375 8.8671875 C6.09142644 13.19905119 4.91146158 16.26181882 1.93359375 19.4765625 C-5.96426631 25.75254058 -16.22223698 25.73274842 -25.81640625 24.8671875 C-31.93463749 23.74819521 -36.9574677 21.75433834 -41.81640625 17.8671875 C-44.29464358 14.1498315 -44.34844413 11.17416081 -43.81640625 6.8671875 C-42.00340192 2.43539913 -39.10631656 -0.14439253 -34.81640625 -2.1328125 C-23.55966276 -6.18524016 -10.47373402 -6.53200616 0 0 Z " fill="#000000" transform="translate(665.81640625,483.1328125)"/>
<path d="M0 0 C3.59066065 2.64206413 6.19457204 5.60398783 8.203125 9.62109375 C8.68530545 14.44289828 8.77188799 16.63523791 6.328125 20.87109375 C0.97245615 26.43916873 -7.31960576 28.29226547 -14.796875 28.62109375 C-15.91642578 28.68103516 -15.91642578 28.68103516 -17.05859375 28.7421875 C-27.58671565 29.03039696 -38.64943348 28.32093166 -46.671875 20.99609375 C-49.4126078 16.64316518 -49.71629327 13.6297342 -48.796875 8.62109375 C-45.98886227 1.71806246 -41.21419768 -2.48678414 -34.37109375 -5.41796875 C-21.83597722 -9.58984268 -11.00723671 -6.94009736 0 0 Z " fill="#000000" transform="translate(384.796875,527.37890625)"/>
<path d="M0 0 C4.85724364 4.01734526 7.10009826 8.50067556 8 14.6875 C6.92758187 22.32847917 3.94415645 27.85197883 -2.109375 32.68359375 C-17.31015567 42.64358239 -35.25811217 42.67910487 -52.45703125 39.2265625 C-60.58035202 37.40207334 -66.83728237 34.24407644 -71.5 27.25 C-74.00378581 22.92527905 -73.71105608 18.97673382 -72.5 14.25 C-68.4464649 4.62285414 -60.10861643 0.13512604 -50.78515625 -3.70703125 C-34.53035761 -8.86759158 -14.61793578 -9.74529052 0 0 Z " fill="#000000" transform="translate(582.5,557.75)"/>
<path d="M0 0 C3.56957755 3.56957755 5.02477658 6.66874806 5.5625 11.6875 C4.82297129 18.58976797 1.60470384 22.30226623 -3.58203125 26.58203125 C-14.03048907 34.10272506 -26.38803969 35.1026694 -38.8125 33.1875 C-44.34572148 32.03926613 -48.25998258 29.79778368 -51.734375 25.2734375 C-53.81588556 21.24616708 -53.81248007 17.55042676 -52.8125 13.1875 C-48.75584769 4.3037459 -39.75201713 0.12610253 -31.0625 -3.1875 C-20.25896553 -6.51487724 -9.57507114 -6.1706014 0 0 Z " fill="#000000" transform="translate(722.8125,585.8125)"/>
</svg>